<svg xmlns="http://www.w3.org/2000/svg" viewBox="0 0 24 24"><g><path d="M1.3 9.4h3.7c.5 0 .9.3 1.1.7l1.3 2.3c.1.2.2.4.2.7v2.7c0 .6-.4 1-1 1H1.3c-.6 0-1-.4-1-1V10.4c0-.6.4-1 1-1z" fill="#ef6c00"/><path d="M2 10.4h2.7c.3 0 .5.1.6.4l1 1.7H2z" fill="#37474f"/><rect x="8.6" y="6.9" width="11.5" height="6.4" rx="3.2" transform="rotate(-11 14.3 10.1)" fill="#b0bec5"/><rect x="12" y="6.3" width="1.2" height="6.8" transform="rotate(-11 12.6 9.7)" fill="#78909c"/><rect x="15.5" y="6.9" width="1.2" height="6.8" transform="rotate(-11 16.1 10.3)" fill="#78909c"/><path d="M19.4 8.2l3.2 1.5-.5 1.2-3.2-1.5z" fill="#78909c"/><rect x="7.4" y="14.7" width="15" height="1.5" rx=".4" fill="#546e7a"/><circle cx="4.3" cy="17.9" r="1.9" fill="#2b2b2b"/><circle cx="4.3" cy="17.9" r="1.04" fill="#9e9e9e"/><circle cx="12.8" cy="17.9" r="1.9" fill="#2b2b2b"/><circle cx="12.8" cy="17.9" r="1.04" fill="#9e9e9e"/><circle cx="18.8" cy="17.9" r="1.9" fill="#2b2b2b"/><circle cx="18.8" cy="17.9" r="1.04" fill="#9e9e9e"/></g></svg>
