<svg xmlns="http://www.w3.org/2000/svg" viewBox="0 0 24 24"><g><rect x="7.8" y="5.8" width="15.5" height="9.7" rx=".8" fill="#e0e0e0"/><rect x="7.8" y="5.8" width="15.5" height="1.8" fill="#bdbdbd"/><path d="M1.3 8.8h3.4c.5 0 .9.3 1.1.7l1.3 2.3c.1.2.2.4.2.7v3c0 .6-.4 1-1 1H1.3c-.6 0-1-.4-1-1V9.8c0-.6.4-1 1-1z" fill="#2e7d32"/><path d="M2 9.8h2.5c.3 0 .5.1.6.4l1 1.7H2z" fill="#37474f"/><circle cx="3.8" cy="16.6" r="2" fill="#2b2b2b"/><circle cx="3.8" cy="16.6" r="1.1" fill="#9e9e9e"/><circle cx="3.8" cy="16.6" r=".4" fill="#616161"/><circle cx="10.5" cy="16.6" r="2" fill="#2b2b2b"/><circle cx="10.5" cy="16.6" r="1.1" fill="#9e9e9e"/><circle cx="10.5" cy="16.6" r=".4" fill="#616161"/><circle cx="15" cy="16.6" r="2" fill="#2b2b2b"/><circle cx="15" cy="16.6" r="1.1" fill="#9e9e9e"/><circle cx="15" cy="16.6" r=".4" fill="#616161"/><circle cx="19.8" cy="16.6" r="2" fill="#2b2b2b"/><circle cx="19.8" cy="16.6" r="1.1" fill="#9e9e9e"/><circle cx="19.8" cy="16.6" r=".4" fill="#616161"/></g></svg>
