<svg xmlns="http://www.w3.org/2000/svg" viewBox="0 0 24 24"><g><path d="M6.5 12V7.5c0-.6.4-1 1-1h3.9c.4 0 .8.3 1 .7l1.5 4.3z" fill="#388e3c"/><path d="M7.8 7.8h2.6c.2 0 .4.2.5.4l1 2.8H7.8z" fill="#37474f"/><path d="M4.5 12.4h11.9c.6 0 1 .4 1 1v1.8h-13z" fill="#2e7d32"/><path d="M16.6 13.5h2.6v2.6h-2.6z" fill="#2e7d32"/><circle cx="7.3" cy="15.8" r="3.4" fill="#2b2b2b"/><circle cx="7.3" cy="15.8" r="2" fill="#fbc02d"/><circle cx="7.3" cy="15.8" r=".8" fill="#616161"/><circle cx="17" cy="17" r="2.2" fill="#2b2b2b"/><circle cx="17" cy="17" r="1.25" fill="#fbc02d"/><rect x="3" y="11" width="1.2" height="2.6" fill="#546e7a"/></g></svg>
