<svg xmlns="http://www.w3.org/2000/svg" viewBox="0 0 24 24"><g><rect x="8.7" y="6.5" width="14.5" height="9.5" rx=".8" fill="#e0e0e0"/><rect x="8.7" y="6.5" width="14.5" height="2" fill="#bdbdbd"/><path d="M1.5 9h3.8c.5 0 1 .3 1.2.7l1.4 2.4c.1.2.2.5.2.7v3.2c0 .6-.4 1-1 1H1.5c-.6 0-1-.4-1-1V10c0-.6.4-1 1-1z" fill="#2e7d32"/><path d="M2.2 10h2.9c.3 0 .5.1.7.4l1.1 1.9H2.2z" fill="#37474f"/><circle cx="4.2" cy="16.8" r="2" fill="#2b2b2b"/><circle cx="4.2" cy="16.8" r="1.1" fill="#9e9e9e"/><circle cx="4.2" cy="16.8" r=".4" fill="#616161"/><circle cx="12" cy="16.8" r="2" fill="#2b2b2b"/><circle cx="12" cy="16.8" r="1.1" fill="#9e9e9e"/><circle cx="12" cy="16.8" r=".4" fill="#616161"/><circle cx="16.5" cy="16.8" r="2" fill="#2b2b2b"/><circle cx="16.5" cy="16.8" r="1.1" fill="#9e9e9e"/><circle cx="16.5" cy="16.8" r=".4" fill="#616161"/><circle cx="20.5" cy="16.8" r="2" fill="#2b2b2b"/><circle cx="20.5" cy="16.8" r="1.1" fill="#9e9e9e"/><circle cx="20.5" cy="16.8" r=".4" fill="#616161"/></g></svg>
